<svg width="301" height="64" viewBox="0 0 301 64" fill="none" xmlns="http://www.w3.org/2000/svg">
<g clip-path="url(#clip0_2436_17395)">
<path d="M26.5041 60.0657C23.8699 60.0657 21.4576 59.3612 19.6271 58.2084C19.6841 61.4151 22.7715 64.0006 26.5751 64.0006C30.3787 64.0006 33.4661 61.4145 33.5231 58.2078C31.6933 59.3606 29.2815 60.0651 26.6461 60.0651L26.5041 60.0657Z" fill="#F46C0B"/>
<path d="M50.1904 27.563C50.5675 27.5647 50.9413 27.4913 51.2903 27.3469C51.6393 27.2025 51.9567 26.9899 52.2243 26.7214C52.4919 26.4528 52.7044 26.1336 52.8498 25.7819C52.9951 25.4303 53.0703 25.0531 53.0711 24.672C53.0711 13.434 42.1648 0 26.6405 0C11.9508 0 0 12.0763 0 26.9187C0 37.894 6.53414 47.3547 15.8774 51.5407C16.0783 54.6213 20.6432 57.1081 26.1974 57.1081H26.9517C32.4317 57.1081 36.9497 54.6885 37.2634 51.6643C41.9956 49.6655 46.137 46.3717 49.0171 42.1338C51.3408 38.4109 52.1863 34.6354 50.6651 31.8636C49.9172 30.4994 48.5202 29.7501 46.7645 29.7501H40.4155C39.5611 29.7501 38.7612 26.3858 38.3815 24.925C37.9575 23.2944 37.5195 21.6087 36.9433 20.2766C36.0256 18.158 34.7503 17.084 33.1511 17.084C31.552 17.084 30.2761 18.158 29.3596 20.2766C28.7834 21.6081 28.3455 23.2944 27.9214 24.925C27.6045 26.1418 26.8541 28.8387 26.5771 29.2422C26.2823 28.8215 25.5477 26.1399 25.2327 24.925C24.8087 23.2944 24.3707 21.6081 23.7946 20.2766C22.8774 18.158 21.6015 17.084 20.0024 17.084C18.4032 17.084 17.128 18.158 16.2102 20.2766C15.634 21.6081 15.196 23.2944 14.7726 24.925C14.3923 26.3916 13.6983 29.0584 13.1247 29.7597C12.627 29.8403 12.1775 30.1069 11.8653 30.5066C11.5531 30.9064 11.4009 31.4102 11.439 31.918C11.4772 32.4258 11.7028 32.9006 12.0711 33.2481C12.4395 33.5957 12.9237 33.7908 13.4277 33.7945C15.0268 33.7945 16.3021 32.7205 17.2199 30.6013C17.796 29.2704 18.234 27.5841 18.658 25.9535C18.9749 24.7367 19.7317 22.0026 20.0024 21.6363C20.2876 22.0929 21.0311 24.7373 21.3467 25.9535C21.7701 27.5841 22.2087 29.2691 22.7849 30.6013C23.702 32.7205 24.9779 33.7945 26.5771 33.7945C28.1762 33.7945 29.4521 32.7205 30.3693 30.6013C30.9448 29.2704 31.3834 27.5841 31.8068 25.9535C32.1237 24.7367 32.9154 21.9366 33.1511 21.6363C33.4047 21.9699 34.1805 24.738 34.4961 25.9535C34.9202 27.5841 35.3575 29.2691 35.9337 30.6013C36.8514 32.7205 38.114 33.808 39.7125 33.808H44.8687C46.2993 33.808 46.9395 34.6515 46.4996 35.7428C44.323 41.1168 39.897 45.1138 34.538 47.1133C34.3307 50.3943 32.0616 52.6308 26.5752 52.6308C21.0609 52.6308 18.7943 50.3693 18.6092 47.0589C14.2358 45.3495 10.5659 42.2414 8.34119 38.0855C4.85323 31.5626 6.2635 27.7596 5.95292 26.5959C5.52699 25.4431 5.47374 23.8381 5.89778 22.1627C6.60576 19.3614 8.38936 17.3779 9.9733 17.5515C8.20365 16.2495 8.99593 13.2694 11.0242 11.2828C12.9301 9.41779 15.402 8.83114 16.7496 9.8629C15.7823 7.81987 18.0521 5.68014 20.8137 5.0019C23.5753 4.32367 26.1549 5.18955 26.5745 6.93541C26.9948 5.18763 29.5738 4.32367 32.3348 5.0019C35.0957 5.68014 37.3896 7.88712 36.3989 9.8629C37.7445 8.8305 40.219 9.41459 42.1249 11.2834C44.1531 13.2688 44.9613 16.2591 43.1789 17.5496C44.7578 17.3574 46.4875 19.1404 47.1334 21.6945C47.3812 22.6712 47.3711 23.8003 47.3286 24.6509C47.3261 25.4204 47.6261 26.1595 48.1628 26.7056C48.6994 27.2517 49.4287 27.5601 50.1904 27.563Z" fill="#F46C0B"/>
<path d="M95.9419 19.2583C100.193 19.2583 102.439 21.5281 102.439 25.8236V45.9599C102.439 46.202 108.987 46.202 108.987 45.9599V25.5687C108.987 17.4138 104.958 13.2791 97.0137 13.2791C91.855 13.2791 88.4507 14.3877 86.0605 15.3542L85.864 15.4336L85.6922 15.3055C83.8541 13.9407 81.3683 13.2778 78.1015 13.2778C72.6297 13.2778 69.1734 14.4204 66.7731 15.415C64.9679 16.1803 64.5547 16.792 64.5547 18.6883V45.9612C64.5547 46.2026 71.1034 46.2026 71.1034 45.9612V21.1758C71.1034 20.8031 71.1871 20.3394 71.8393 20.057C73.5709 19.4947 75.1149 19.2609 77.0367 19.2609C81.329 19.2609 83.5974 21.5306 83.5974 25.8261V45.9599C83.5974 46.202 90.1455 46.202 90.1455 45.9599V25.5687C90.1455 23.6653 89.9212 22.1045 89.4768 20.9286L89.3368 20.5565L89.7095 20.4284C91.1286 19.9244 93.328 19.2583 95.9419 19.2583Z" fill="#F46C0B"/>
<path d="M114.291 14.154V45.9612C114.291 46.2027 120.838 46.2027 120.838 45.9612V14.154C120.838 13.9106 114.291 13.9106 114.291 14.154Z" fill="#F46C0B"/>
<path d="M139.628 19.2583C144.441 19.2583 146.881 21.4883 146.881 25.8876V45.9599C146.881 46.202 153.43 46.202 153.43 45.9599V25.6954C153.43 17.4561 149.147 13.2791 140.7 13.2791C135.999 13.2791 131.983 13.9791 128.423 15.4169C126.6 16.1656 126.205 16.7471 126.205 18.6896V45.9611C126.205 46.2026 132.752 46.2026 132.752 45.9611V21.1117C132.75 20.895 132.814 20.6828 132.936 20.5044C133.058 20.326 133.232 20.19 133.433 20.1152C135.45 19.5466 137.534 19.2583 139.628 19.2583Z" fill="#F46C0B"/>
<path d="M170.453 13.2789C162.087 13.2789 157.66 17.7493 157.66 26.2051V34.9318C157.66 43.2135 162.134 47.4116 170.958 47.4116C176.544 47.4116 179.984 46.3946 182.612 45.3981C184.544 44.6045 184.885 44.1338 184.885 42.256V2.25682C184.885 2.02242 178.337 2.01537 178.337 2.25682V14.182L177.613 14.0539C175.815 13.7253 173.352 13.2789 170.453 13.2789ZM171.651 41.4369C166.851 41.4369 164.209 39.0371 164.209 34.6808V26.3966C164.209 21.5932 166.705 19.2582 171.841 19.2582C174.249 19.2582 176.283 19.7065 177.766 20.0357L178.337 20.1638V39.6436C178.337 40.2015 178.158 40.4576 177.601 40.6991C175.876 41.1909 173.893 41.4369 171.651 41.4369Z" fill="#F46C0B"/>
<path d="M190.248 55.4801C192.593 59.4925 196.763 61.426 202.98 61.426C211.929 61.426 216.467 56.8846 216.467 47.926V18.3706C216.467 16.4589 216.23 16.106 214.354 15.217C212.326 14.2807 208.306 13.2791 203.107 13.2791C193.907 13.2791 189.242 17.6495 189.242 26.2699V33.4679C189.242 41.7066 193.525 45.8849 201.971 45.8849C204.843 45.8849 207.359 45.3085 209.438 44.7513L209.918 44.6232V48.3109C209.918 53.0637 207.476 55.5768 202.854 55.5768C199.545 55.5768 197.488 54.5521 195.975 52.1498C195.796 51.77 189.999 55.0548 190.248 55.4801ZM203.044 39.905C198.367 39.905 195.79 37.5508 195.79 33.2758V26.5242C195.79 21.635 198.349 19.2583 203.612 19.2583C205.454 19.2563 207.29 19.4965 209.071 19.973L209.12 19.9903C209.651 20.2202 209.92 20.4559 209.92 21.1105V38.9322L209.625 39.0039C207.826 39.4394 205.684 39.905 203.044 39.905Z" fill="#F46C0B"/>
<path d="M235.571 13.2791C229.723 13.4116 226.04 14.3781 223.982 15.1652C222.164 15.9113 221.77 16.4915 221.77 18.4315V45.9599C221.77 46.2013 228.318 46.2013 228.318 45.9599V21.1745C228.318 20.9439 228.318 20.242 229.248 20.0332C230.932 19.5074 232.871 19.2596 235.319 19.2596H237.588C237.788 19.2596 237.675 13.2803 237.588 13.2803L235.571 13.2791Z" fill="#F46C0B"/>
<path d="M241.248 14.154V34.9961C241.248 43.2348 245.553 47.4131 254.041 47.4131C260.105 47.4131 263.916 46.1559 266.255 45.2112C268.167 44.426 268.474 43.7542 268.474 42.0026V14.154C268.474 13.9132 261.926 13.9132 261.926 14.154V39.2C261.926 39.6841 261.827 40.3617 260.971 40.6499C259.109 41.2078 257.398 41.4371 255.052 41.4371C250.239 41.4371 247.799 39.1859 247.799 34.7444V14.154C247.796 13.9106 241.248 13.9106 241.248 14.154Z" fill="#F46C0B"/>
<path d="M273.776 2.25701V42.2575C273.776 44.1686 274.014 44.5221 275.888 45.4104C276.966 45.876 280.989 47.4118 287.136 47.4118C296.336 47.4118 301 42.9991 301 34.2941V25.6948C301 17.4555 296.718 13.2785 288.271 13.2785C285.334 13.2785 282.825 13.8709 280.993 14.3032L280.324 14.4614V2.25701C280.325 2.01557 273.776 2.01557 273.776 2.25701ZM286.632 41.4371C284.467 41.4371 282.549 41.1649 281.086 40.6512C280.452 40.3765 280.325 40.0274 280.325 39.5849V20.5123L280.587 20.424C282.884 19.6503 285.109 19.2577 287.2 19.2577C291.878 19.2577 294.454 21.6114 294.454 25.8863V34.1039C294.454 39.036 291.895 41.4371 286.632 41.4371Z" fill="#F46C0B"/>
</g>
<defs>
<clipPath id="clip0_2436_17395">
<rect width="301" height="64" fill="white"/>
</clipPath>
</defs>
</svg>
