<svg width="160" height="40" viewBox="0 0 160 40" fill="none" xmlns="http://www.w3.org/2000/svg">
  <g id="mindgrub-logo">
    <!-- Brain icon -->
    <path d="M15 8C12.2386 8 10 10.2386 10 13C10 13.5304 10.0983 14.0391 10.2761 14.5078C9.51106 14.9721 9 15.8027 9 16.75C9 17.6352 9.44772 18.4113 10.1213 18.8662C10.0426 19.2313 10 19.6101 10 20C10 22.7614 12.2386 25 15 25C16.3807 25 17.6307 24.4404 18.5355 23.5355C19.4404 24.4404 20.6893 25 22.0701 25C24.8314 25 27.0701 22.7614 27.0701 20C27.0701 19.6101 27.0274 19.2313 26.9487 18.8662C27.6224 18.4113 28.0701 17.6352 28.0701 16.75C28.0701 15.8027 27.559 14.9721 26.794 14.5078C26.9717 14.0391 27.0701 13.5304 27.0701 13C27.0701 10.2386 24.8314 8 22.0701 8C20.6893 8 19.4404 8.55964 18.5355 9.46447C17.6307 8.55964 16.3807 8 15 8Z" fill="#F47114"/>
    
    <!-- Text: mindgrub -->
    <path d="M40 28V16.8C40 15.8059 40.8059 15 41.8 15C42.3523 15 42.8431 15.2107 43.2 15.56C43.5569 15.2107 44.0477 15 44.6 15C45.5941 15 46.4 15.8059 46.4 16.8V28H44.8V17.2C44.8 16.8686 44.5314 16.6 44.2 16.6C43.8686 16.6 43.6 16.8686 43.6 17.2V28H42V17.2C42 16.8686 41.7314 16.6 41.4 16.6C41.0686 16.6 40.8 16.8686 40.8 17.2V28H40Z" fill="#231F20"/>
    
    <path d="M49 15H50.6V28H49V15ZM49.8 13.4C49.1373 13.4 48.6 12.8627 48.6 12.2C48.6 11.5373 49.1373 11 49.8 11C50.4627 11 51 11.5373 51 12.2C51 12.8627 50.4627 13.4 49.8 13.4Z" fill="#231F20"/>
    
    <path d="M53.2 28V16.8C53.2 15.8059 54.0059 15 55 15C55.5523 15 56.0431 15.2107 56.4 15.56C56.7569 15.2107 57.2477 15 57.8 15C58.7941 15 59.6 15.8059 59.6 16.8V28H58V17.2C58 16.8686 57.7314 16.6 57.4 16.6C57.0686 16.6 56.8 16.8686 56.8 17.2V28H55.2V17.2C55.2 16.8686 54.9314 16.6 54.6 16.6C54.2686 16.6 54 16.8686 54 17.2V28H53.2Z" fill="#231F20"/>
    
    <path d="M65.8 28.2C63.7013 28.2 62 26.4987 62 24.4V18.6C62 16.5013 63.7013 14.8 65.8 14.8C67.1807 14.8 68.3863 15.5469 69.0265 16.6667C69.0089 16.7757 69 16.8872 69 17V25C69 25.1128 69.0089 25.2243 69.0265 25.3333C68.3863 26.4531 67.1807 27.2 65.8 27.2ZM63.6 21.5C63.6 23.4882 65.2118 25.1 67.2 25.1C67.3105 25.1 67.4 25.1895 67.4 25.3V21.5C67.4 19.5118 65.7882 17.9 63.8 17.9C63.6895 17.9 63.6 17.8105 63.6 17.7V21.5Z" fill="#231F20"/>
    
    <path d="M77.8 28.2C75.7013 28.2 74 26.4987 74 24.4V18.6C74 16.5013 75.7013 14.8 77.8 14.8C79.8987 14.8 81.6 16.5013 81.6 18.6V20.2H76V22.6C76 23.5941 76.8059 24.4 77.8 24.4C78.4627 24.4 79.0275 23.9701 79.2266 23.3667L80.7734 23.8333C80.3419 25.4185 78.8935 26.6 77.2 26.6ZM76 18.6H80C80 17.1641 78.8359 16 77.4 16C75.9641 16 74.8 17.1641 74.8 18.6Z" fill="#231F20"/>
    
    <path d="M84.2 28V16.6C84.2 15.1641 85.3641 14 86.8 14C87.4627 14 88.0611 14.2612 88.4934 14.6934L87.5066 15.6802C87.3159 15.4896 87.0649 15.38 86.8 15.38C86.1373 15.38 85.6 15.9173 85.6 16.58V28H84.2Z" fill="#231F20"/>
    
    <path d="M90.6 25.8C90.6 24.5297 91.6297 23.5 92.9 23.5C93.4179 23.5 93.8987 23.6716 94.2803 23.9574L94.2803 16.8C94.2803 15.8059 95.0862 15 96.0803 15C97.0744 15 97.8803 15.8059 97.8803 16.8V28H96.4803V27.2C96.4803 26.6477 96.0326 26.2 95.4803 26.2C94.928 26.2 94.4803 26.6477 94.4803 27.2V28H93.0803V25.8ZM92.2 21.5C92.2 19.5118 93.8118 17.9 95.8 17.9C95.9105 17.9 96 17.8105 96 17.7V21.5C96 23.4882 94.3882 25.1 92.4 25.1C92.2895 25.1 92.2 25.1895 92.2 25.3V21.5Z" fill="#231F20"/>
    
    <!-- Text: .ai -->
    <path d="M102 28.2C101.337 28.2 100.8 27.6627 100.8 27C100.8 26.3373 101.337 25.8 102 25.8C102.663 25.8 103.2 26.3373 103.2 27C103.2 27.6627 102.663 28.2 102 28.2Z" fill="#F47114"/>
    
    <path d="M110.8 28V27.2C110.248 27.9581 109.374 28.4 108.4 28.4C106.743 28.4 105.4 27.0569 105.4 25.4V18.6C105.4 16.9431 106.743 15.6 108.4 15.6C109.374 15.6 110.248 16.0419 110.8 16.8V16C110.8 15.4477 111.248 15 111.8 15C112.352 15 112.8 15.4477 112.8 16V28H110.8ZM107.4 21.5C107.4 23.1569 108.743 24.5 110.4 24.5C110.621 24.5 110.8 24.3209 110.8 24.1V18.9C110.8 18.6791 110.621 18.5 110.4 18.5C108.743 18.5 107.4 19.8431 107.4 21.5Z" fill="#F47114"/>
    
    <path d="M116.2 15H118.2V28H116.2V15ZM117.2 13.4C116.537 13.4 116 12.8627 116 12.2C116 11.5373 116.537 11 117.2 11C117.863 11 118.4 11.5373 118.4 12.2C118.4 12.8627 117.863 13.4 117.2 13.4Z" fill="#F47114"/>
  </g>
</svg>